<?xml version="1.0" encoding="iso-8859-1"?>
<!-- Generator: Adobe Illustrator 18.0.0, SVG Export Plug-In . SVG Version: 6.00 Build 0)  -->
<!DOCTYPE svg PUBLIC "-//W3C//DTD SVG 1.1//EN" "http://www.w3.org/Graphics/SVG/1.1/DTD/svg11.dtd">
<svg version="1.1" id="Capa_1" xmlns="http://www.w3.org/2000/svg" xmlns:xlink="http://www.w3.org/1999/xlink" x="0px" y="0px"
	 viewBox="0 0 359.448 359.448" style="enable-background:new 0 0 359.448 359.448;" xml:space="preserve">
<path d="M354.724,171.16c0-26.69-14.734-49.991-36.486-62.236C304.906,46.92,245,0,173.319,0C97.486,0,34.83,52.514,26.559,119.847
	C13.112,132.835,4.724,151.031,4.724,171.16c0,39.358,32.021,71.379,71.379,71.379c2.762,0,5-2.239,5-5v-132.76c0-2.761-2.238-5-5-5
	c-3.361,0-6.664,0.25-9.904,0.703c15.92-38.884,57.928-66.729,107.12-66.729c49.269,0,91.329,27.933,107.192,66.913
	c-1.307,0.902-2.166,2.407-2.166,4.114v132.76c0,2.761,2.238,5,5,5c1.654,0,3.289-0.077,4.915-0.188
	c-11.071,34.443-41.038,61.811-79.183,72.519c-4.566-7.385-12.735-12.309-22.056-12.309h-27.404
	c-14.312,0-25.917,11.603-25.917,25.916v5.054c0,14.314,11.605,25.918,25.917,25.918h27.404c13.065,0,23.87-9.672,25.653-22.247
	c51.311-13.492,90.777-52.673,100.435-101.19C337.644,224.705,354.724,199.897,354.724,171.16z"/>
<g>
</g>
<g>
</g>
<g>
</g>
<g>
</g>
<g>
</g>
<g>
</g>
<g>
</g>
<g>
</g>
<g>
</g>
<g>
</g>
<g>
</g>
<g>
</g>
<g>
</g>
<g>
</g>
<g>
</g>
</svg>
