<?xml version="1.0" encoding="iso-8859-1"?>
<!-- Generator: Adobe Illustrator 19.0.0, SVG Export Plug-In . SVG Version: 6.00 Build 0)  -->
<svg version="1.1" id="Layer_1" xmlns="http://www.w3.org/2000/svg" xmlns:xlink="http://www.w3.org/1999/xlink" x="0px" y="0px"
	 viewBox="0 0 512 512" style="enable-background:new 0 0 512 512;" xml:space="preserve">
<g>
	<g>
		<g>
			<path d="M472.178,34.62H39.822C17.864,34.62,0,52.485,0,74.442c0,17.955,0,345.233,0,363.115
				c0,21.958,17.864,39.822,39.822,39.822h432.356c21.958,0,39.822-17.864,39.822-39.822c0-17.89,0-345.165,0-363.115
				C512,52.485,494.136,34.62,472.178,34.62z M477.867,437.557c0,3.137-2.552,5.689-5.689,5.689H39.822
				c-3.137,0-5.689-2.552-5.689-5.689V153.839h443.733V437.557z M477.867,119.706H34.133V74.442c0-3.137,2.552-5.689,5.689-5.689
				h432.356c3.137,0,5.689,2.552,5.689,5.689V119.706z"/>
			<circle cx="71.805" cy="94.231" r="12.836"/>
			<circle cx="112.959" cy="94.231" r="12.836"/>
			<circle cx="154.112" cy="94.231" r="12.836"/>
			<path d="M385.157,328.686l24.583,24.582c6.664,6.665,17.471,6.666,24.136,0c6.665-6.665,6.665-17.471,0-24.136l-24.583-24.582
				c7.501-17.177,4.248-37.959-9.786-51.992c-18.29-18.291-48.052-18.291-66.343,0c-18.291,18.291-18.291,48.052,0,66.343
				C347.152,332.888,367.889,336.228,385.157,328.686z M357.301,276.694c4.982-4.982,13.089-4.982,18.071,0
				c4.981,4.981,4.982,13.086,0.002,18.068c-0.001,0.001-0.002,0.001-0.003,0.002c-0.001,0.001-0.001,0.002-0.002,0.002
				c-4.982,4.979-13.087,4.979-18.068-0.002C352.319,289.783,352.319,281.676,357.301,276.694z"/>
			<path d="M90.192,358.267h209.969c9.425,0,17.067-7.641,17.067-17.067s-7.641-17.067-17.067-17.067H90.192
				c-9.425,0-17.067,7.641-17.067,17.067S80.766,358.267,90.192,358.267z"/>
		</g>
	</g>
</g>
<g>
</g>
<g>
</g>
<g>
</g>
<g>
</g>
<g>
</g>
<g>
</g>
<g>
</g>
<g>
</g>
<g>
</g>
<g>
</g>
<g>
</g>
<g>
</g>
<g>
</g>
<g>
</g>
<g>
</g>
</svg>
